<svg xmlns="http://www.w3.org/2000/svg" xmlns:xlink="http://www.w3.org/1999/xlink" width="1920.792" height="2758.01" viewBox="0 0 1920.792 2758.01">
  <defs>
    <linearGradient id="linear-gradient" x1="0.328" y1="-0.38" x2="1.05" y2="1.589" gradientUnits="objectBoundingBox">
      <stop offset="0" stop-color="#aa0aff"/>
      <stop offset="1" stop-color="#ff0058"/>
    </linearGradient>
  </defs>
  <g id="Group_3" data-name="Group 3" transform="translate(0.005 0.009)">
    <g id="fundo">
      <path id="fundo-2" data-name="fundo" d="M0,95.224V796.263S469.06,579.94,565.147,921.245s1355.641,364.3,1355.641,364.3V0L0-.009Z" fill="url(#linear-gradient)"/>
      <path id="Intersection_2" data-name="Intersection 2" d="M1453.005,580.01c0-184.463,149.537-334,334-334a332.8,332.8,0,0,1,133.787,27.873V886.136A332.8,332.8,0,0,1,1787,914.009C1602.542,914.009,1453.005,764.473,1453.005,580.01Z" transform="translate(-0.005 -0.009)" fill="url(#linear-gradient)"/>
      <path id="Intersection_1" data-name="Intersection 1" d="M222,648.757V174.991l405.8,0A332.5,332.5,0,0,1,668,334c0,184.463-149.537,334-334,334A333.362,333.362,0,0,1,222,648.757Z" transform="translate(-222 -175)" fill="url(#linear-gradient)"/>
      <path id="Path_2" data-name="Path 2" d="M47.741,3.048A10.006,10.006,0,0,0,40.4,0H10.39A10.007,10.007,0,0,0,3.05,3.048,10.007,10.007,0,0,0,0,10.388V40.4a10.008,10.008,0,0,0,3.048,7.34,10.006,10.006,0,0,0,7.34,3.048H40.4A10.407,10.407,0,0,0,50.789,40.4V10.388A10.01,10.01,0,0,0,47.741,3.048ZM46.172,40.4A5.786,5.786,0,0,1,40.4,46.17H10.39a5.557,5.557,0,0,1-4.076-1.694,5.559,5.559,0,0,1-1.7-4.076V10.388a5.559,5.559,0,0,1,1.7-4.076,5.558,5.558,0,0,1,4.076-1.7H40.4a5.558,5.558,0,0,1,4.076,1.7,5.558,5.558,0,0,1,1.695,4.076V40.4Z" transform="translate(909.602 378.606)" fill="rgba(255,255,255,0.51)"/>
      <path id="Path_11" data-name="Path 11" d="M47.741,3.048A10.006,10.006,0,0,0,40.4,0H10.39A10.007,10.007,0,0,0,3.05,3.048,10.007,10.007,0,0,0,0,10.388V40.4a10.008,10.008,0,0,0,3.048,7.34,10.006,10.006,0,0,0,7.34,3.048H40.4A10.407,10.407,0,0,0,50.789,40.4V10.388A10.01,10.01,0,0,0,47.741,3.048ZM46.172,40.4A5.786,5.786,0,0,1,40.4,46.17H10.39a5.557,5.557,0,0,1-4.076-1.694,5.559,5.559,0,0,1-1.7-4.076V10.388a5.559,5.559,0,0,1,1.7-4.076,5.558,5.558,0,0,1,4.076-1.7H40.4a5.558,5.558,0,0,1,4.076,1.7,5.558,5.558,0,0,1,1.695,4.076V40.4Z" transform="translate(1119.602 207.606)" fill="rgba(255,255,255,0.51)"/>
      <path id="Path_12" data-name="Path 12" d="M47.741,3.048A10.006,10.006,0,0,0,40.4,0H10.39A10.007,10.007,0,0,0,3.05,3.048,10.007,10.007,0,0,0,0,10.388V40.4a10.008,10.008,0,0,0,3.048,7.34,10.006,10.006,0,0,0,7.34,3.048H40.4A10.407,10.407,0,0,0,50.789,40.4V10.388A10.01,10.01,0,0,0,47.741,3.048ZM46.172,40.4A5.786,5.786,0,0,1,40.4,46.17H10.39a5.557,5.557,0,0,1-4.076-1.694,5.559,5.559,0,0,1-1.7-4.076V10.388a5.559,5.559,0,0,1,1.7-4.076,5.558,5.558,0,0,1,4.076-1.7H40.4a5.558,5.558,0,0,1,4.076,1.7,5.558,5.558,0,0,1,1.695,4.076V40.4Z" transform="translate(1696.602 579.606)" fill="rgba(255,255,255,0.51)"/>
      <path id="Path_10" data-name="Path 10" d="M47.741,3.048A10.006,10.006,0,0,0,40.4,0H10.39A10.007,10.007,0,0,0,3.05,3.048,10.007,10.007,0,0,0,0,10.388V40.4a10.008,10.008,0,0,0,3.048,7.34,10.006,10.006,0,0,0,7.34,3.048H40.4A10.407,10.407,0,0,0,50.789,40.4V10.388A10.01,10.01,0,0,0,47.741,3.048ZM46.172,40.4A5.786,5.786,0,0,1,40.4,46.17H10.39a5.557,5.557,0,0,1-4.076-1.694,5.559,5.559,0,0,1-1.7-4.076V10.388a5.559,5.559,0,0,1,1.7-4.076,5.558,5.558,0,0,1,4.076-1.7H40.4a5.558,5.558,0,0,1,4.076,1.7,5.558,5.558,0,0,1,1.695,4.076V40.4Z" transform="translate(487.602 403.606)" fill="rgba(255,255,255,0.51)"/>
      <path id="Path_8" data-name="Path 8" d="M47.741,3.048A10.006,10.006,0,0,0,40.4,0H10.39A10.007,10.007,0,0,0,3.05,3.048,10.007,10.007,0,0,0,0,10.388V40.4a10.008,10.008,0,0,0,3.048,7.34,10.006,10.006,0,0,0,7.34,3.048H40.4A10.407,10.407,0,0,0,50.789,40.4V10.388A10.01,10.01,0,0,0,47.741,3.048ZM46.172,40.4A5.786,5.786,0,0,1,40.4,46.17H10.39a5.557,5.557,0,0,1-4.076-1.694,5.559,5.559,0,0,1-1.7-4.076V10.388a5.559,5.559,0,0,1,1.7-4.076,5.558,5.558,0,0,1,4.076-1.7H40.4a5.558,5.558,0,0,1,4.076,1.7,5.558,5.558,0,0,1,1.695,4.076V40.4Z" transform="translate(709.602 722.606)" fill="rgba(255,255,255,0.51)"/>
      <path id="Path_3" data-name="Path 3" d="M47.741,3.048A10.006,10.006,0,0,0,40.4,0H10.39A10.007,10.007,0,0,0,3.05,3.048,10.007,10.007,0,0,0,0,10.388V40.4a10.008,10.008,0,0,0,3.048,7.34,10.006,10.006,0,0,0,7.34,3.048H40.4A10.407,10.407,0,0,0,50.789,40.4V10.388A10.01,10.01,0,0,0,47.741,3.048ZM46.172,40.4A5.786,5.786,0,0,1,40.4,46.17H10.39a5.557,5.557,0,0,1-4.076-1.694,5.559,5.559,0,0,1-1.7-4.076V10.388a5.559,5.559,0,0,1,1.7-4.076,5.558,5.558,0,0,1,4.076-1.7H40.4a5.558,5.558,0,0,1,4.076,1.7,5.558,5.558,0,0,1,1.695,4.076V40.4Z" transform="translate(84.602 554.606)" fill="rgba(255,255,255,0.51)"/>
      <path id="Path_4" data-name="Path 4" d="M47.741,3.048A10.006,10.006,0,0,0,40.4,0H10.39A10.007,10.007,0,0,0,3.05,3.048,10.007,10.007,0,0,0,0,10.388V40.4a10.008,10.008,0,0,0,3.048,7.34,10.006,10.006,0,0,0,7.34,3.048H40.4A10.407,10.407,0,0,0,50.789,40.4V10.388A10.01,10.01,0,0,0,47.741,3.048ZM46.172,40.4A5.786,5.786,0,0,1,40.4,46.17H10.39a5.557,5.557,0,0,1-4.076-1.694,5.559,5.559,0,0,1-1.7-4.076V10.388a5.559,5.559,0,0,1,1.7-4.076,5.558,5.558,0,0,1,4.076-1.7H40.4a5.558,5.558,0,0,1,4.076,1.7,5.558,5.558,0,0,1,1.695,4.076V40.4Z" transform="translate(586.602 149.606)" fill="rgba(255,255,255,0.51)"/>
      <path id="Path_5" data-name="Path 5" d="M47.741,3.048A10.006,10.006,0,0,0,40.4,0H10.39A10.007,10.007,0,0,0,3.05,3.048,10.007,10.007,0,0,0,0,10.388V40.4a10.008,10.008,0,0,0,3.048,7.34,10.006,10.006,0,0,0,7.34,3.048H40.4A10.407,10.407,0,0,0,50.789,40.4V10.388A10.01,10.01,0,0,0,47.741,3.048ZM46.172,40.4A5.786,5.786,0,0,1,40.4,46.17H10.39a5.557,5.557,0,0,1-4.076-1.694,5.559,5.559,0,0,1-1.7-4.076V10.388a5.559,5.559,0,0,1,1.7-4.076,5.558,5.558,0,0,1,4.076-1.7H40.4a5.558,5.558,0,0,1,4.076,1.7,5.558,5.558,0,0,1,1.695,4.076V40.4Z" transform="translate(1144.602 697.606)" fill="rgba(255,255,255,0.51)"/>
      <path id="Path_7" data-name="Path 7" d="M47.741,3.048A10.006,10.006,0,0,0,40.4,0H10.39A10.007,10.007,0,0,0,3.05,3.048,10.007,10.007,0,0,0,0,10.388V40.4a10.008,10.008,0,0,0,3.048,7.34,10.006,10.006,0,0,0,7.34,3.048H40.4A10.407,10.407,0,0,0,50.789,40.4V10.388A10.01,10.01,0,0,0,47.741,3.048ZM46.172,40.4A5.786,5.786,0,0,1,40.4,46.17H10.39a5.557,5.557,0,0,1-4.076-1.694,5.559,5.559,0,0,1-1.7-4.076V10.388a5.559,5.559,0,0,1,1.7-4.076,5.558,5.558,0,0,1,4.076-1.7H40.4a5.558,5.558,0,0,1,4.076,1.7,5.558,5.558,0,0,1,1.695,4.076V40.4Z" transform="translate(1532.602 1093.606)" fill="rgba(255,255,255,0.51)"/>
      <path id="Path_6" data-name="Path 6" d="M47.741,3.048A10.006,10.006,0,0,0,40.4,0H10.39A10.007,10.007,0,0,0,3.05,3.048,10.007,10.007,0,0,0,0,10.388V40.4a10.008,10.008,0,0,0,3.048,7.34,10.006,10.006,0,0,0,7.34,3.048H40.4A10.407,10.407,0,0,0,50.789,40.4V10.388A10.01,10.01,0,0,0,47.741,3.048ZM46.172,40.4A5.786,5.786,0,0,1,40.4,46.17H10.39a5.557,5.557,0,0,1-4.076-1.694,5.559,5.559,0,0,1-1.7-4.076V10.388a5.559,5.559,0,0,1,1.7-4.076,5.558,5.558,0,0,1,4.076-1.7H40.4a5.558,5.558,0,0,1,4.076,1.7,5.558,5.558,0,0,1,1.695,4.076V40.4Z" transform="translate(1636.602 124.606)" fill="rgba(255,255,255,0.51)"/>
    </g>
    <g id="calculadora">
      <path id="calculadora-2" data-name="calculadora" d="M213.479,25.017A25.044,25.044,0,0,0,188.462,0H25.017A25.044,25.044,0,0,0,0,25.017V188.462a25.044,25.044,0,0,0,25.017,25.017H188.462a25.044,25.044,0,0,0,25.017-25.017Zm-16.678,0V98.4H115.079V16.678h73.383A8.349,8.349,0,0,1,196.8,25.017ZM25.017,16.678H98.4V98.4H16.678V25.017A8.349,8.349,0,0,1,25.017,16.678ZM16.678,188.462V115.079H98.4V196.8H25.017A8.349,8.349,0,0,1,16.678,188.462ZM188.462,196.8H115.079V115.079H196.8v73.383A8.349,8.349,0,0,1,188.462,196.8ZM32.8,57.539A8.338,8.338,0,0,1,41.14,49.2H49.2V41.14a8.339,8.339,0,1,1,16.678,0V49.2h8.061a8.339,8.339,0,0,1,0,16.678H65.878v8.061a8.339,8.339,0,0,1-16.678,0V65.878H41.14A8.338,8.338,0,0,1,32.8,57.539Zm105.647-5.7a8.338,8.338,0,1,1,11.792-11.792l5.7,5.7,5.7-5.7a8.338,8.338,0,0,1,11.792,11.792l-5.7,5.7,5.7,5.7A8.338,8.338,0,0,1,161.64,75.032l-5.7-5.7-5.7,5.7A8.338,8.338,0,1,1,138.447,63.24l5.7-5.7Zm-56.17,104.1a8.338,8.338,0,0,1-8.339,8.339H41.14a8.339,8.339,0,0,1,0-16.678h32.8A8.338,8.338,0,0,1,82.278,155.94Zm98.4,16.4a8.338,8.338,0,0,1-8.339,8.339h-32.8a8.339,8.339,0,1,1,0-16.678h32.8A8.338,8.338,0,0,1,180.678,172.339Zm0-32.8a8.338,8.338,0,0,1-8.339,8.339h-32.8a8.339,8.339,0,1,1,0-16.678h32.8A8.338,8.338,0,0,1,180.678,139.54Zm0,0" transform="translate(1363.26 1416.26)" fill="#ab0cff"/>
    </g>
    <g id="contato">
      <path id="Path_9" data-name="Path 9" d="M1920,2136.561s-481.646-160.261-850.15-94.33-356.4,316.025-623.865,358.053S-.005,2210.342-.005,2210.342V2998H1920Z" transform="translate(0 -240)" fill="#ab0cff"/>
      <path id="Path_13" data-name="Path 13" d="M47.741,3.048A10.006,10.006,0,0,0,40.4,0H10.39A10.007,10.007,0,0,0,3.05,3.048,10.007,10.007,0,0,0,0,10.388V40.4a10.008,10.008,0,0,0,3.048,7.34,10.006,10.006,0,0,0,7.34,3.048H40.4A10.407,10.407,0,0,0,50.789,40.4V10.388A10.01,10.01,0,0,0,47.741,3.048ZM46.172,40.4A5.786,5.786,0,0,1,40.4,46.17H10.39a5.557,5.557,0,0,1-4.076-1.694,5.559,5.559,0,0,1-1.7-4.076V10.388a5.559,5.559,0,0,1,1.7-4.076,5.558,5.558,0,0,1,4.076-1.7H40.4a5.558,5.558,0,0,1,4.076,1.7,5.558,5.558,0,0,1,1.695,4.076V40.4Z" transform="translate(873.602 2091.606)" fill="rgba(255,255,255,0.51)"/>
      <path id="Path_14" data-name="Path 14" d="M47.741,3.048A10.006,10.006,0,0,0,40.4,0H10.39A10.007,10.007,0,0,0,3.05,3.048,10.007,10.007,0,0,0,0,10.388V40.4a10.008,10.008,0,0,0,3.048,7.34,10.006,10.006,0,0,0,7.34,3.048H40.4A10.407,10.407,0,0,0,50.789,40.4V10.388A10.01,10.01,0,0,0,47.741,3.048ZM46.172,40.4A5.786,5.786,0,0,1,40.4,46.17H10.39a5.557,5.557,0,0,1-4.076-1.694,5.559,5.559,0,0,1-1.7-4.076V10.388a5.559,5.559,0,0,1,1.7-4.076,5.558,5.558,0,0,1,4.076-1.7H40.4a5.558,5.558,0,0,1,4.076,1.7,5.558,5.558,0,0,1,1.695,4.076V40.4Z" transform="translate(616.602 2379.606)" fill="rgba(255,255,255,0.51)"/>
      <path id="Path_15" data-name="Path 15" d="M47.741,3.048A10.006,10.006,0,0,0,40.4,0H10.39A10.007,10.007,0,0,0,3.05,3.048,10.007,10.007,0,0,0,0,10.388V40.4a10.008,10.008,0,0,0,3.048,7.34,10.006,10.006,0,0,0,7.34,3.048H40.4A10.407,10.407,0,0,0,50.789,40.4V10.388A10.01,10.01,0,0,0,47.741,3.048ZM46.172,40.4A5.786,5.786,0,0,1,40.4,46.17H10.39a5.557,5.557,0,0,1-4.076-1.694,5.559,5.559,0,0,1-1.7-4.076V10.388a5.559,5.559,0,0,1,1.7-4.076,5.558,5.558,0,0,1,4.076-1.7H40.4a5.558,5.558,0,0,1,4.076,1.7,5.558,5.558,0,0,1,1.695,4.076V40.4Z" transform="translate(362.602 2275.606)" fill="rgba(255,255,255,0.51)"/>
      <path id="Path_16" data-name="Path 16" d="M47.741,3.048A10.006,10.006,0,0,0,40.4,0H10.39A10.007,10.007,0,0,0,3.05,3.048,10.007,10.007,0,0,0,0,10.388V40.4a10.008,10.008,0,0,0,3.048,7.34,10.006,10.006,0,0,0,7.34,3.048H40.4A10.407,10.407,0,0,0,50.789,40.4V10.388A10.01,10.01,0,0,0,47.741,3.048ZM46.172,40.4A5.786,5.786,0,0,1,40.4,46.17H10.39a5.557,5.557,0,0,1-4.076-1.694,5.559,5.559,0,0,1-1.7-4.076V10.388a5.559,5.559,0,0,1,1.7-4.076,5.558,5.558,0,0,1,4.076-1.7H40.4a5.558,5.558,0,0,1,4.076,1.7,5.558,5.558,0,0,1,1.695,4.076V40.4Z" transform="translate(199.602 2527.606)" fill="rgba(255,255,255,0.51)"/>
      <path id="Path_17" data-name="Path 17" d="M47.741,3.048A10.006,10.006,0,0,0,40.4,0H10.39A10.007,10.007,0,0,0,3.05,3.048,10.007,10.007,0,0,0,0,10.388V40.4a10.008,10.008,0,0,0,3.048,7.34,10.006,10.006,0,0,0,7.34,3.048H40.4A10.407,10.407,0,0,0,50.789,40.4V10.388A10.01,10.01,0,0,0,47.741,3.048ZM46.172,40.4A5.786,5.786,0,0,1,40.4,46.17H10.39a5.557,5.557,0,0,1-4.076-1.694,5.559,5.559,0,0,1-1.7-4.076V10.388a5.559,5.559,0,0,1,1.7-4.076,5.558,5.558,0,0,1,4.076-1.7H40.4a5.558,5.558,0,0,1,4.076,1.7,5.558,5.558,0,0,1,1.695,4.076V40.4Z" transform="translate(44.602 2246.606)" fill="rgba(255,255,255,0.51)"/>
      <path id="Path_18" data-name="Path 18" d="M47.741,3.048A10.006,10.006,0,0,0,40.4,0H10.39A10.007,10.007,0,0,0,3.05,3.048,10.007,10.007,0,0,0,0,10.388V40.4a10.008,10.008,0,0,0,3.048,7.34,10.006,10.006,0,0,0,7.34,3.048H40.4A10.407,10.407,0,0,0,50.789,40.4V10.388A10.01,10.01,0,0,0,47.741,3.048ZM46.172,40.4A5.786,5.786,0,0,1,40.4,46.17H10.39a5.557,5.557,0,0,1-4.076-1.694,5.559,5.559,0,0,1-1.7-4.076V10.388a5.559,5.559,0,0,1,1.7-4.076,5.558,5.558,0,0,1,4.076-1.7H40.4a5.558,5.558,0,0,1,4.076,1.7,5.558,5.558,0,0,1,1.695,4.076V40.4Z" transform="translate(959.602 2569.606)" fill="rgba(255,255,255,0.51)"/>
      <path id="Path_19" data-name="Path 19" d="M47.741,3.048A10.006,10.006,0,0,0,40.4,0H10.39A10.007,10.007,0,0,0,3.05,3.048,10.007,10.007,0,0,0,0,10.388V40.4a10.008,10.008,0,0,0,3.048,7.34,10.006,10.006,0,0,0,7.34,3.048H40.4A10.407,10.407,0,0,0,50.789,40.4V10.388A10.01,10.01,0,0,0,47.741,3.048ZM46.172,40.4A5.786,5.786,0,0,1,40.4,46.17H10.39a5.557,5.557,0,0,1-4.076-1.694,5.559,5.559,0,0,1-1.7-4.076V10.388a5.559,5.559,0,0,1,1.7-4.076,5.558,5.558,0,0,1,4.076-1.7H40.4a5.558,5.558,0,0,1,4.076,1.7,5.558,5.558,0,0,1,1.695,4.076V40.4Z" transform="translate(1229.602 1912.606)" fill="rgba(255,255,255,0.51)"/>
      <path id="Path_20" data-name="Path 20" d="M47.741,3.048A10.006,10.006,0,0,0,40.4,0H10.39A10.007,10.007,0,0,0,3.05,3.048,10.007,10.007,0,0,0,0,10.388V40.4a10.008,10.008,0,0,0,3.048,7.34,10.006,10.006,0,0,0,7.34,3.048H40.4A10.407,10.407,0,0,0,50.789,40.4V10.388A10.01,10.01,0,0,0,47.741,3.048ZM46.172,40.4A5.786,5.786,0,0,1,40.4,46.17H10.39a5.557,5.557,0,0,1-4.076-1.694,5.559,5.559,0,0,1-1.7-4.076V10.388a5.559,5.559,0,0,1,1.7-4.076,5.558,5.558,0,0,1,4.076-1.7H40.4a5.558,5.558,0,0,1,4.076,1.7,5.558,5.558,0,0,1,1.695,4.076V40.4Z" transform="translate(1804.602 2552.606)" fill="rgba(255,255,255,0.51)"/>
      <path id="Path_22" data-name="Path 22" d="M47.741,3.048A10.006,10.006,0,0,0,40.4,0H10.39A10.007,10.007,0,0,0,3.05,3.048,10.007,10.007,0,0,0,0,10.388V40.4a10.008,10.008,0,0,0,3.048,7.34,10.006,10.006,0,0,0,7.34,3.048H40.4A10.407,10.407,0,0,0,50.789,40.4V10.388A10.01,10.01,0,0,0,47.741,3.048ZM46.172,40.4A5.786,5.786,0,0,1,40.4,46.17H10.39a5.557,5.557,0,0,1-4.076-1.694,5.559,5.559,0,0,1-1.7-4.076V10.388a5.559,5.559,0,0,1,1.7-4.076,5.558,5.558,0,0,1,4.076-1.7H40.4a5.558,5.558,0,0,1,4.076,1.7,5.558,5.558,0,0,1,1.695,4.076V40.4Z" transform="translate(1779.602 1975.606)" fill="rgba(255,255,255,0.51)"/>
    </g>
    <path id="logo" d="M214.315,13.683A44.92,44.92,0,0,0,181.362,0H46.637A44.923,44.923,0,0,0,13.684,13.683,44.924,44.924,0,0,0,0,46.637V181.362a44.929,44.929,0,0,0,13.682,32.953A44.921,44.921,0,0,0,46.637,228H181.362A46.719,46.719,0,0,0,228,181.362V46.637A44.939,44.939,0,0,0,214.315,13.683Zm-7.045,167.679a25.973,25.973,0,0,1-25.908,25.905H46.637a24.949,24.949,0,0,1-18.3-7.606,24.958,24.958,0,0,1-7.61-18.3V46.637a24.954,24.954,0,0,1,7.61-18.3,24.95,24.95,0,0,1,18.3-7.61H181.362a24.95,24.95,0,0,1,18.3,7.61,24.951,24.951,0,0,1,7.608,18.3V181.362Z" transform="translate(1385.997 233)" fill="#fff"/>
  </g>
</svg>
